<svg xmlns="http://www.w3.org/2000/svg" direction="ltr" width="574" height="574" viewBox="7423 4858 600 574" stroke-linecap="round" stroke-linejoin="round" data-color-mode="light" class="tl-container tl-theme__force-sRGB tl-theme__light" style="background-color: transparent;"><defs/><g transform="matrix(1, 0, 0, 1, 7423, 4858)" opacity="1"><g data-lovart-layer-name="SVG 1"><g transform="scale(1, 1)"><g>
<g xmlns="http://www.w3.org/2000/svg" stroke-width="2.00" fill="none" stroke-linecap="butt">
<path stroke="#838761" d="M 321.85 499.93   Q 342.44 497.53 361.93 490.14"/>
<path stroke="#838761" d="M 364.27 489.22   Q 377.21 485.92 388.47 478.90"/>
<path stroke="#838761" d="M 30.08 369.00   Q 28.30 359.87 25.04 351.16"/>
<path stroke="#838761" d="M 24.39 349.03   Q 24.50 347.59 23.89 344.74   Q 21.17 332.13 19.98 315.95"/>
<path stroke="#838761" d="M 19.43 311.68   Q 18.49 305.33 18.47 299.04   Q 18.43 290.31 18.43 290.21   Q 18.21 280.62 18.71 275.50   Q 19.43 268.18 19.37 265.00"/>
<path stroke="#838761" d="M 19.88 262.20   L 22.96 240.86   A 29.62 9.95 -56.5 0 1 24.83 233.86   Q 24.89 233.70 25.18 229.64"/>
<path stroke="#838761" d="M 25.43 228.47   Q 25.80 228.49 26.05 227.52   Q 30.03 212.08 35.57 197.15   Q 36.88 193.62 40.37 185.69   Q 42.87 180.02 45.07 174.20"/>
<path stroke="#838761" d="M 135.92 67.05   Q 137.71 66.69 138.49 65.21"/>
<path stroke="#838761" d="M 652.94 269.66   Q 653.98 268.50 653.83 266.76"/>
<path stroke="#838761" d="M 710.73 214.37   Q 711.07 215.37 712.82 213.88"/>
<path stroke="#838761" d="M 1673.09 327.78   Q 1674.72 330.48 1677.24 332.11"/>
<path stroke="#838761" d="M 1866.01 332.31   Q 1862.32 326.02 1859.35 319.43   Q 1855.29 310.43 1850.13 299.80   Q 1844.02 287.21 1841.74 281.96   Q 1838.41 274.30 1833.37 264.11   Q 1830.33 257.94 1829.02 254.52   Q 1826.78 248.64 1824.74 244.91   Q 1822.52 240.85 1821.03 236.64   Q 1820.10 234.01 1817.26 228.42   Q 1814.83 223.64 1812.32 216.79   A 2.18 2.16 80.0 0 0 1810.30 215.36   L 1791.62 215.15"/>
<path stroke="#838761" d="M 1869.26 339.91   L 1874.93 351.29"/>
<path stroke="#838761" d="M 1061.75 278.60   Q 1081.70 279.99 1101.77 278.88   Q 1113.02 278.26 1124.25 279.10   Q 1125.73 279.21 1126.14 279.93"/>
</g>
<path xmlns="http://www.w3.org/2000/svg" fill="#4a6936" d="M 321.85 499.93   Q 342.44 497.53 361.93 490.14   Q 362.97 489.22 364.27 489.22   Q 377.21 485.92 388.47 478.90   Q 389.91 479.40 390.12 479.89   C 394.06 488.90 397.78 499.11 401.25 507.17   Q 407.10 520.73 412.02 532.11   A 1.25 1.24 -23.2 0 1 411.36 533.74   Q 403.57 537.02 395.79 540.04   Q 348.00 558.56 297.25 559.67   C 272.54 560.21 246.81 557.81 222.58 551.91   Q 163.69 537.58 115.78 497.46   C 88.00 474.19 65.53 446.28 48.68 414.63   Q 46.31 410.18 43.50 403.85   Q 41.97 400.42 38.70 392.90   Q 33.57 381.10 30.08 369.00   Q 28.30 359.87 25.04 351.16   Q 24.55 350.26 24.39 349.03   Q 24.50 347.59 23.89 344.74   Q 21.17 332.13 19.98 315.95   Q 18.78 313.97 19.43 311.68   Q 18.49 305.33 18.47 299.04   Q 18.43 290.31 18.43 290.21   Q 18.21 280.62 18.71 275.50   Q 19.43 268.18 19.37 265.00   Q 19.32 263.41 19.88 262.20   L 22.96 240.86   A 29.62 9.95 -56.5 0 1 24.83 233.86   Q 24.89 233.70 25.18 229.64   Q 25.15 229.16 25.43 228.47   Q 25.80 228.49 26.05 227.52   Q 30.03 212.08 35.57 197.15   Q 36.88 193.62 40.37 185.69   Q 42.87 180.02 45.07 174.20   Q 59.50 144.08 80.74 118.00   Q 104.62 88.66 135.70 67.10   A 0.35 0.27 18.3 0 1 135.84 67.05   Q 135.88 67.05 135.92 67.05   Q 137.71 66.69 138.49 65.21   Q 140.23 63.71 140.85 63.30   Q 176.60 39.85 217.00 28.13   Q 242.97 20.60 267.56 18.59   C 307.31 15.36 347.79 19.83 385.81 33.97   Q 396.56 37.97 409.97 44.10   Q 413.12 45.55 414.87 46.83   A 0.63 0.61 32.1 0 1 415.06 47.62   Q 403.04 70.37 392.36 94.36   Q 391.58 96.11 389.99 98.84   A 1.91 1.91 0.0 0 1 387.47 99.58   Q 342.95 77.05 294.46 76.37   C 240.16 75.60 189.28 94.56 148.50 130.53   Q 129.71 147.10 115.48 167.21   Q 113.04 170.65 106.11 182.10   Q 101.38 189.92 97.97 197.68   Q 90.82 213.97 88.15 221.60   Q 77.20 252.90 76.31 287.94   C 76.13 295.02 76.88 302.04 77.32 309.73   Q 77.54 313.44 78.33 318.39   Q 80.86 334.22 85.30 350.19   C 87.04 356.44 88.94 360.56 91.94 368.34   C 95.37 377.25 100.28 387.19 105.34 395.59   Q 123.21 425.25 148.21 447.31   Q 163.02 460.39 177.75 469.73   C 207.80 488.78 242.36 499.89 277.74 501.52   Q 294.93 502.31 300.25 501.80   Q 311.05 500.75 321.85 499.93   Z"/>
<path xmlns="http://www.w3.org/2000/svg" fill="#bba58b" d="M 138.49 65.21   Q 137.71 66.69 135.92 67.05   Q 136.97 65.89 138.49 65.21   Z"/>
<path xmlns="http://www.w3.org/2000/svg" fill="#bba58b" d="M 369.52 430.18   C 366.79 431.95 364.59 432.77 361.86 433.92   Q 324.89 449.42 287.22 448.91   Q 240.35 448.28 201.62 423.07   Q 170.76 402.98 151.65 372.41   Q 145.81 363.06 140.41 351.08   Q 136.01 341.31 132.74 328.11   Q 121.20 281.53 137.04 235.28   Q 139.87 227.00 145.38 215.88   C 163.22 179.86 194.32 151.68 232.06 137.81   Q 276.46 121.50 323.48 130.99   Q 345.26 135.39 363.54 145.24   Q 366.82 147.00 369.14 148.66   A 0.66 0.66 0.0 0 1 369.35 149.48   Q 363.41 161.65 354.78 179.87   C 352.09 185.54 350.02 194.66 346.16 198.59   A 2.78 2.78 0.0 0 1 342.59 198.93   Q 338.92 196.38 335.85 194.99   Q 306.66 181.78 275.33 185.96   C 228.02 192.26 187.72 234.26 186.22 282.68   C 185.56 303.76 189.16 323.06 199.92 341.07   Q 219.45 373.77 254.74 386.49   Q 262.23 389.19 273.14 390.97   C 292.13 394.08 312.09 391.73 329.76 384.83   Q 336.24 382.30 341.89 377.90   C 343.71 376.49 345.51 376.63 346.78 378.71   Q 349.28 382.81 349.76 384.01   C 351.69 388.87 353.15 394.04 355.52 399.06   Q 357.20 402.61 368.34 427.39   Q 369.02 428.92 369.57 429.40   A 0.49 0.49 0.0 0 1 369.52 430.18   Z"/>
<path xmlns="http://www.w3.org/2000/svg" fill="#bba58b" d="M 25.43 228.47   Q 32.29 200.34 45.07 174.20   Q 42.87 180.02 40.37 185.69   Q 36.88 193.62 35.57 197.15   Q 30.03 212.08 26.05 227.52   Q 25.80 228.49 25.43 228.47   Z"/>
<path xmlns="http://www.w3.org/2000/svg" fill="#4a6936" d="M 652.94 269.66   Q 653.98 268.50 653.83 266.76   C 655.30 262.40 656.74 257.99 658.93 254.03   Q 675.93 223.36 710.73 214.37   Q 711.07 215.37 712.82 213.88   Q 717.84 212.71 722.14 212.38   C 744.62 210.66 766.39 215.01 784.49 228.97   Q 788.94 232.40 792.30 236.62   A 1.03 1.02 -43.8 0 1 792.27 237.92   Q 786.37 244.77 779.30 251.05   C 777.32 252.80 775.71 251.75 773.91 250.15   Q 757.74 235.81 736.03 234.42   C 720.91 233.45 705.23 237.18 693.65 247.36   Q 679.86 259.47 675.95 277.43   C 670.45 302.72 679.41 328.65 703.05 341.04   C 714.49 347.03 727.64 348.12 740.38 346.59   C 752.78 345.11 765.06 339.87 773.66 330.39   C 776.89 326.82 778.38 326.57 781.63 330.00   Q 789.85 338.66 792.85 342.28   A 0.99 0.99 0.0 0 1 792.87 343.52   C 784.68 354.15 770.59 361.60 757.76 365.20   Q 731.98 372.44 706.18 365.85   C 687.09 360.98 670.24 347.14 660.47 330.75   Q 655.27 322.02 652.11 310.27   C 651.14 306.66 651.03 302.79 650.34 298.79   Q 649.97 296.64 649.98 294.17   Q 650.02 284.60 651.72 274.40   Q 652.13 271.92 652.94 269.66   Z"/>
<path xmlns="http://www.w3.org/2000/svg" fill="#4a6936" d="M 1673.09 327.78   Q 1674.72 330.48 1677.24 332.11   L 1687.21 342.34   A 1.18 1.18 0.0 0 1 1687.24 343.95   C 1669.04 363.89 1640.00 371.18 1613.72 368.49   C 1587.97 365.86 1566.42 353.18 1553.30 331.00   Q 1549.65 324.82 1548.20 321.01   Q 1540.00 299.46 1543.58 277.92   Q 1547.23 256.01 1562.25 239.25   C 1585.12 213.73 1620.85 206.14 1653.53 216.23   Q 1673.22 222.31 1686.86 237.38   A 0.62 0.62 0.0 0 1 1686.83 238.25   Q 1681.65 243.17 1674.08 249.81   Q 1673.08 250.68 1671.15 251.60   A 2.17 2.16 53.9 0 1 1668.73 251.22   Q 1654.91 238.05 1636.30 235.18   C 1614.43 231.81 1590.89 238.06 1577.57 256.88   C 1569.05 268.92 1566.09 285.22 1568.11 299.79   Q 1570.77 319.01 1583.17 331.25   Q 1595.82 343.75 1614.72 346.45   C 1632.14 348.94 1651.97 345.08 1665.26 332.78   Q 1666.89 331.28 1668.46 329.05   C 1669.71 327.30 1671.19 327.10 1673.09 327.78   Z"/>
<path xmlns="http://www.w3.org/2000/svg" fill="#bba58b" d="M 712.82 213.88   Q 711.07 215.37 710.73 214.37   L 712.82 213.88   Z"/>
<path xmlns="http://www.w3.org/2000/svg" fill="#bba58b" d="M 1866.01 332.31   Q 1862.32 326.02 1859.35 319.43   Q 1855.29 310.43 1850.13 299.80   Q 1844.02 287.21 1841.74 281.96   Q 1838.41 274.30 1833.37 264.11   Q 1830.33 257.94 1829.02 254.52   Q 1826.78 248.64 1824.74 244.91   Q 1822.52 240.85 1821.03 236.64   Q 1820.10 234.01 1817.26 228.42   Q 1814.83 223.64 1812.32 216.79   A 2.18 2.16 80.0 0 0 1810.30 215.36   L 1791.62 215.15   C 1795.64 213.68 1799.39 214.81 1802.65 214.85   Q 1807.04 214.91 1810.29 214.86   A 2.71 2.71 0.0 0 1 1813.01 217.13   Q 1813.21 218.30 1813.66 219.34   C 1816.52 225.91 1819.12 230.50 1821.29 236.25   C 1822.97 240.69 1826.28 246.17 1828.28 251.29   Q 1830.25 256.30 1831.25 258.32   Q 1835.02 265.92 1842.93 283.10   Q 1845.07 287.76 1857.58 314.64   C 1859.97 319.79 1863.49 326.28 1866.01 332.31   Z"/>
<rect xmlns="http://www.w3.org/2000/svg" fill="#4a6936" x="1188.65" y="214.94" width="24.02" height="151.50" rx="1.98"/>
<rect xmlns="http://www.w3.org/2000/svg" fill="#4a6936" x="1467.24" y="214.91" width="23.34" height="151.24" rx="1.55"/>
<path xmlns="http://www.w3.org/2000/svg" fill="#4a6936" d="M 972.71 364.69   A 0.39 0.38 -32.8 0 1 972.56 365.36   Q 969.15 366.28 965.50 366.30   Q 952.65 366.35 946.76 366.40   C 943.79 366.42 942.32 365.54 940.80 362.92   C 937.42 357.08 933.67 352.26 929.34 346.48   Q 926.41 342.57 921.57 335.65   Q 912.27 322.37 905.20 313.05   Q 903.61 310.95 901.70 307.54   A 1.59 1.58 -13.8 0 0 900.35 306.73   Q 886.25 306.42 872.26 306.41   Q 870.02 306.41 868.41 307.30   A 0.88 0.87 75.3 0 0 867.97 308.06   L 867.97 364.42   A 1.16 1.15 75.5 0 1 867.38 365.43   Q 865.99 366.23 863.50 366.21   Q 860.84 366.19 848.75 366.22   Q 845.79 366.23 844.07 365.63   A 0.40 0.40 0.0 0 1 843.79 365.25   L 843.79 216.60   A 0.39 0.39 0.0 0 1 843.99 216.26   Q 845.98 215.12 847.94 215.12   Q 901.78 215.02 913.72 215.24   Q 927.28 215.50 940.11 220.84   Q 954.34 226.75 961.04 240.68   Q 966.16 251.31 965.54 263.49   Q 964.22 289.30 941.49 299.79   C 937.54 301.61 933.38 302.32 929.20 303.83   A 1.17 1.16 62.3 0 0 928.65 305.61   Q 944.92 327.96 963.70 353.07   C 966.66 357.03 969.08 361.69 972.71 364.69   Z   M 867.82 239.28   L 867.98 284.04   A 1.91 1.91 0.0 0 0 869.89 285.94   L 914.51 285.78   A 26.51 22.21 -0.2 0 0 940.95 263.48   L 940.93 259.32   A 26.51 22.21 -0.2 0 0 914.35 237.21   L 869.73 237.36   A 1.91 1.91 0.0 0 0 867.82 239.28   Z"/>
<path xmlns="http://www.w3.org/2000/svg" fill="#4a6936" d="M 1061.75 278.60   Q 1081.70 279.99 1101.77 278.88   Q 1113.02 278.26 1124.25 279.10   Q 1125.73 279.21 1126.14 279.93   L 1126.18 299.59   A 1.17 1.16 87.0 0 1 1125.14 300.75   Q 1122.82 301.01 1119.75 300.98   Q 1102.50 300.81 1050.74 300.66   Q 1049.01 300.65 1046.03 301.30   A 1.35 1.35 0.0 0 0 1044.97 302.62   L 1044.97 341.45   A 1.67 1.66 9.6 0 0 1046.09 343.02   Q 1048.20 343.76 1049.75 343.76   Q 1093.81 343.87 1133.78 343.43   A 1.67 1.66 -0.2 0 1 1135.46 345.09   L 1135.46 364.87   A 0.54 0.53 78.2 0 1 1135.14 365.36   Q 1133.47 366.15 1131.75 366.16   Q 1116.79 366.23 1022.76 366.12   A 1.59 1.58 -89.1 0 1 1021.18 364.48   C 1021.22 363.33 1021.62 362.10 1021.62 360.49   C 1021.71 308.66 1021.30 264.24 1021.68 216.85   A 0.79 0.79 0.0 0 1 1022.14 216.13   Q 1024.54 215.02 1027.76 215.04   Q 1080.27 215.24 1125.25 214.96   Q 1129.96 214.93 1133.60 215.30   A 1.19 1.18 -87.0 0 1 1134.66 216.48   L 1134.66 236.20   A 0.75 0.74 75.7 0 1 1134.28 236.85   Q 1133.11 237.52 1131.25 237.50   Q 1099.07 237.22 1052.77 237.14   Q 1049.40 237.13 1046.01 237.91   A 1.46 1.44 -6.5 0 0 1044.88 239.32   L 1044.88 276.45   A 1.36 1.35 14.8 0 0 1045.57 277.63   C 1047.46 278.70 1049.75 278.94 1052.23 278.71   Q 1057.08 278.27 1061.75 278.60   Z"/>
<path xmlns="http://www.w3.org/2000/svg" fill="#4a6936" d="M 1273.15 366.02   A 0.46 0.45 -80.0 0 1 1272.86 365.59   L 1272.86 216.99   A 1.77 1.76 87.9 0 1 1274.49 215.23   Q 1277.87 214.98 1282.50 214.97   Q 1289.38 214.95 1332.16 215.14   C 1350.17 215.22 1366.79 219.03 1381.86 229.23   C 1395.40 238.40 1405.00 252.49 1410.04 268.11   C 1413.06 277.49 1413.19 289.02 1412.92 298.49   C 1412.79 303.33 1411.73 310.76 1409.30 316.73   Q 1405.29 326.56 1404.94 327.20   Q 1400.93 334.57 1393.01 343.21   Q 1384.23 352.79 1369.80 359.04   C 1353.62 366.04 1335.36 366.30 1318.00 366.17   Q 1303.99 366.07 1274.75 366.34   Q 1274.06 366.34 1273.15 366.02   Z   M 1297.06 239.23   L 1297.06 342.17   A 1.58 1.58 0.0 0 0 1298.64 343.75   L 1337.68 343.75   A 50.72 49.24 0.0 0 0 1388.40 294.51   L 1388.40 286.89   A 50.72 49.24 -0.0 0 0 1337.68 237.65   L 1298.64 237.65   A 1.58 1.58 0.0 0 0 1297.06 239.23   Z"/>
<path xmlns="http://www.w3.org/2000/svg" fill="#4a6936" d="M 1791.62 215.15   L 1810.30 215.36   A 2.18 2.16 80.0 0 1 1812.32 216.79   Q 1814.83 223.64 1817.26 228.42   Q 1820.10 234.01 1821.03 236.64   Q 1822.52 240.85 1824.74 244.91   Q 1826.78 248.64 1829.02 254.52   Q 1830.33 257.94 1833.37 264.11   Q 1838.41 274.30 1841.74 281.96   Q 1844.02 287.21 1850.13 299.80   Q 1855.29 310.43 1859.35 319.43   Q 1862.32 326.02 1866.01 332.31   L 1869.26 339.91   L 1874.93 351.29   L 1881.50 364.78   A 0.56 0.55 69.2 0 1 1881.16 365.55   Q 1878.56 366.34 1877.98 366.33   Q 1871.97 366.29 1862.04 366.65   Q 1859.12 366.76 1856.60 365.34   A 1.60 1.55 3.1 0 1 1855.95 364.64   L 1839.87 330.34   A 1.27 1.22 -87.2 0 0 1839.38 329.78   Q 1838.39 329.16 1836.31 329.17   Q 1787.97 329.38 1764.78 328.85   C 1763.11 328.81 1761.54 329.55 1760.89 331.32   Q 1759.95 333.90 1757.40 338.56   Q 1756.41 340.35 1754.19 345.92   Q 1750.86 354.26 1746.09 364.54   A 3.08 3.08 0.0 0 1 1743.30 366.32   L 1721.12 366.32   A 0.77 0.77 0.0 0 1 1720.44 365.19   Q 1724.66 357.02 1727.01 351.44   C 1731.61 340.56 1734.74 335.03 1739.81 323.64   Q 1746.24 309.24 1775.44 245.88   C 1778.13 240.05 1779.28 236.56 1781.72 232.49   C 1784.56 227.74 1785.61 224.40 1788.10 217.62   Q 1789.07 215.00 1791.62 215.15   Z   M 1773.08 306.97   L 1826.52 306.97   A 1.34 1.34 0.0 0 0 1827.77 305.14   C 1824.28 296.23 1819.74 288.22 1816.19 279.59   Q 1811.72 268.72 1806.15 256.97   C 1804.55 253.59 1804.35 251.78 1803.26 248.02   Q 1802.96 246.99 1802.52 246.34   A 1.76 1.75 -36.5 0 0 1799.95 245.96   C 1795.81 249.30 1795.68 255.02 1793.57 259.18   C 1791.33 263.59 1790.22 267.71 1787.67 272.58   Q 1785.67 276.43 1784.43 279.63   C 1782.58 284.41 1779.00 290.04 1777.57 294.34   Q 1775.37 300.93 1772.33 305.56   A 0.91 0.90 -73.3 0 0 1773.08 306.97   Z"/>
<path xmlns="http://www.w3.org/2000/svg" fill="#bba58b" d="M 19.88 262.20   Q 20.64 245.66 25.18 229.64   Q 24.89 233.70 24.83 233.86   A 29.62 9.95 -56.5 0 0 22.96 240.86   L 19.88 262.20   Z"/>
<circle xmlns="http://www.w3.org/2000/svg" fill="#eaad3f" cx="471.56" cy="290.40" r="53.50"/>
<path xmlns="http://www.w3.org/2000/svg" fill="#bba58b" d="M 19.43 311.68   Q 18.34 308.28 18.30 305.25   Q 18.19 295.25 18.32 276.77   C 18.35 272.72 18.83 268.92 19.37 265.00   Q 19.43 268.18 18.71 275.50   Q 18.21 280.62 18.43 290.21   Q 18.43 290.31 18.47 299.04   Q 18.49 305.33 19.43 311.68   Z"/>
<path xmlns="http://www.w3.org/2000/svg" fill="#bba58b" d="M 652.94 269.66   L 653.83 266.76   Q 653.98 268.50 652.94 269.66   Z"/>
<path xmlns="http://www.w3.org/2000/svg" fill="#bba58b" d="M 1126.14 279.93   Q 1125.73 279.21 1124.25 279.10   Q 1113.02 278.26 1101.77 278.88   Q 1081.70 279.99 1061.75 278.60   Q 1088.15 278.44 1114.44 278.06   C 1118.11 278.01 1121.94 278.35 1125.66 278.78   Q 1126.14 278.83 1126.25 279.18   Q 1126.36 279.52 1126.14 279.93   Z"/>
<path xmlns="http://www.w3.org/2000/svg" fill="#bba58b" d="M 24.39 349.03   Q 22.46 342.05 22.23 340.00   Q 21.44 332.85 20.22 325.75   Q 19.56 321.95 19.98 315.95   Q 21.17 332.13 23.89 344.74   Q 24.50 347.59 24.39 349.03   Z"/>
<path xmlns="http://www.w3.org/2000/svg" fill="#bba58b" d="M 1677.24 332.11   Q 1674.72 330.48 1673.09 327.78   Q 1675.66 329.42 1677.24 332.11   Z"/>
<path xmlns="http://www.w3.org/2000/svg" fill="#bba58b" d="M 1869.26 339.91   L 1874.93 351.29   L 1869.26 339.91   Z"/>
<path xmlns="http://www.w3.org/2000/svg" fill="#bba58b" d="M 30.08 369.00   L 25.04 351.16   Q 28.30 359.87 30.08 369.00   Z"/>
<path xmlns="http://www.w3.org/2000/svg" fill="#bba58b" d="M 388.47 478.90   Q 377.21 485.92 364.27 489.22   L 388.47 478.90   Z"/>
<path xmlns="http://www.w3.org/2000/svg" fill="#bba58b" d="M 361.93 490.14   Q 342.44 497.53 321.85 499.93   Q 342.13 496.32 361.93 490.14   Z"/>
</g></g></g></g></svg>